# xmcd
#
# Track frame offsets: 
#        150
#        37468
#        63475
#        83897
#        103024
#        120903
#        143492
#        161424
#        184836
#        204315
#
# Disc length: 3057 seconds
#
# Revision: 0
# Processed by: cddbd v1.5.2PL0 Copyright (c) Steve Scherf et al.
# Submitted via: ExactAudioCopy v1.0b3
#
DISCID=840bef0a
DTITLE=Giao Linh, VA - Ruoc Xuan Ve Nha
DYEAR=1997
DGENRE=
TTITLE0=Mai Le Huyen, Truc Duy, Quoc Anh - Chuc Xuan
TTITLE1=Giao Linh - Dan ao mua Xuan
TTITLE2=Hoai Linh, Thanh Huong, Ky Anh - Co Tham du Xuan
TTITLE3=Thanh Tuyen - Don Xuan nay nho Xuan xua
TTITLE4=Van Thu - Ruoc Xuan ve nha
TTITLE5=Van Thu, My Huyen, Thanh Huong - Ba ran ba ri
TTITLE6=Nguyen Anh Huy - Tinh khuc mua Xuan
TTITLE7=Giao Linh - Dau nam di le
TTITLE8=Thanh Tuyen, Linh Tuan - Chiec ao nguoi thuong
TTITLE9=Cam Van, Huy Tam - Tinh yeu ngo nghinh
EXTD=
EXTT0=
EXTT1=
EXTT2=
EXTT3=
EXTT4=
EXTT5=
EXTT6=
EXTT7=
EXTT8=
EXTT9=
PLAYORDER=
